<?xml version="1.0" encoding="UTF-8" standalone="no"?>
<!DOCTYPE svg PUBLIC "-//W3C//DTD SVG 1.1//EN"
 "http://www.w3.org/Graphics/SVG/1.1/DTD/svg11.dtd">
<!-- Generated by graphviz version 2.49.3 (20211023.0002)
 -->
<!-- Title: G Pages: 1 -->
<svg width="298pt" height="566pt"
 viewBox="0.00 0.00 298.00 566.00" xmlns="http://www.w3.org/2000/svg" xmlns:xlink="http://www.w3.org/1999/xlink">
<g id="graph0" class="graph" transform="scale(1 1) rotate(0) translate(4 562)">
<title>G</title>
<polygon fill="white" stroke="transparent" points="-4,4 -4,-562 294,-562 294,4 -4,4"/>
<!-- n3 -->
<g id="node1" class="node">
<title>n3</title>
<ellipse fill="none" stroke="black" cx="149" cy="-540" rx="18" ry="18"/>
<text text-anchor="middle" x="149" y="-536.3" font-family="Times New Roman,serif" font-size="14.00">A</text>
</g>
<!-- n2 -->
<g id="node2" class="node">
<title>n2</title>
<ellipse fill="none" stroke="black" cx="93" cy="-453" rx="18" ry="18"/>
<text text-anchor="middle" x="93" y="-449.3" font-family="Times New Roman,serif" font-size="14.00">B</text>
</g>
<!-- n3&#45;&gt;n2 -->
<g id="edge1" class="edge">
<title>n3&#45;&gt;n2</title>
<path fill="none" stroke="black" d="M139.5,-524.58C130.89,-511.51 118.06,-492.04 108.06,-476.85"/>
<polygon fill="black" stroke="black" points="110.97,-474.91 102.55,-468.49 105.13,-478.77 110.97,-474.91"/>
<text text-anchor="middle" x="152.5" y="-492.8" font-family="Times New Roman,serif" font-size="14.00">.spin() / 0</text>
</g>
<!-- n1 -->
<g id="node3" class="node">
<title>n1</title>
<ellipse fill="none" stroke="black" cx="74" cy="-366" rx="18" ry="18"/>
<text text-anchor="middle" x="74" y="-362.3" font-family="Times New Roman,serif" font-size="14.00">C</text>
</g>
<!-- n2&#45;&gt;n1 -->
<g id="edge2" class="edge">
<title>n2&#45;&gt;n1</title>
<path fill="none" stroke="black" d="M83.13,-437.69C79.51,-431.6 75.84,-424.24 74,-417 72.14,-409.68 71.55,-401.56 71.57,-394.03"/>
<polygon fill="black" stroke="black" points="75.07,-394.05 71.95,-383.92 68.08,-393.78 75.07,-394.05"/>
<text text-anchor="middle" x="107" y="-405.8" font-family="Times New Roman,serif" font-size="14.00">.punch() / 1</text>
</g>
<!-- n0 -->
<g id="node5" class="node">
<title>n0</title>
<ellipse fill="none" stroke="black" cx="148" cy="-192" rx="18" ry="18"/>
<text text-anchor="middle" x="148" y="-188.3" font-family="Times New Roman,serif" font-size="14.00">E</text>
</g>
<!-- n2&#45;&gt;n0 -->
<g id="edge4" class="edge">
<title>n2&#45;&gt;n0</title>
<path fill="none" stroke="black" d="M109.13,-444.72C119.95,-438.9 133.38,-429.61 140,-417 157.51,-383.62 153.1,-272.49 149.92,-220.4"/>
<polygon fill="black" stroke="black" points="153.4,-219.98 149.27,-210.22 146.41,-220.43 153.4,-219.98"/>
<text text-anchor="middle" x="180.5" y="-318.8" font-family="Times New Roman,serif" font-size="14.00">.spin() / 3</text>
</g>
<!-- n5 -->
<g id="node7" class="node">
<title>n5</title>
<ellipse fill="none" stroke="black" cx="51" cy="-18" rx="18" ry="18"/>
<text text-anchor="middle" x="51" y="-14.3" font-family="Times New Roman,serif" font-size="14.00">G</text>
</g>
<!-- n2&#45;&gt;n5 -->
<g id="edge3" class="edge">
<title>n2&#45;&gt;n5</title>
<path fill="none" stroke="black" d="M76.37,-445.72C49.62,-434.4 0,-407.9 0,-367 0,-367 0,-367 0,-104 0,-78.79 16.69,-54.61 30.98,-38.52"/>
<polygon fill="black" stroke="black" points="33.85,-40.58 38.13,-30.89 28.74,-35.79 33.85,-40.58"/>
<text text-anchor="middle" x="30.5" y="-231.8" font-family="Times New Roman,serif" font-size="14.00">.stand() / 2</text>
</g>
<!-- n4 -->
<g id="node4" class="node">
<title>n4</title>
<ellipse fill="none" stroke="black" cx="80" cy="-279" rx="18" ry="18"/>
<text text-anchor="middle" x="80" y="-275.3" font-family="Times New Roman,serif" font-size="14.00">D</text>
</g>
<!-- n1&#45;&gt;n4 -->
<g id="edge5" class="edge">
<title>n1&#45;&gt;n4</title>
<path fill="none" stroke="black" d="M74.92,-347.87C75.46,-338.21 76.2,-325.93 77,-315 77.19,-312.45 77.39,-309.79 77.61,-307.13"/>
<polygon fill="black" stroke="black" points="81.1,-307.34 78.45,-297.08 74.12,-306.76 81.1,-307.34"/>
<text text-anchor="middle" x="104.5" y="-318.8" font-family="Times New Roman,serif" font-size="14.00">.spin() / 4</text>
</g>
<!-- n4&#45;&gt;n0 -->
<g id="edge6" class="edge">
<title>n4&#45;&gt;n0</title>
<path fill="none" stroke="black" d="M77.93,-260.94C77.54,-250.61 78.67,-237.62 85,-228 93.38,-215.25 108.07,-206.71 121.16,-201.26"/>
<polygon fill="black" stroke="black" points="122.58,-204.46 130.72,-197.67 120.13,-197.9 122.58,-204.46"/>
<text text-anchor="middle" x="112.5" y="-231.8" font-family="Times New Roman,serif" font-size="14.00">.spin() / 5</text>
</g>
<!-- n0&#45;&gt;n3 -->
<g id="edge8" class="edge">
<title>n0&#45;&gt;n3</title>
<path fill="none" stroke="black" d="M163.75,-201.39C186.01,-214.52 224,-242.17 224,-278 224,-454 224,-454 224,-454 224,-485.31 195.04,-510.53 173.11,-525.14"/>
<polygon fill="black" stroke="black" points="171.12,-522.26 164.54,-530.56 174.86,-528.17 171.12,-522.26"/>
<text text-anchor="middle" x="257" y="-362.3" font-family="Times New Roman,serif" font-size="14.00">.punch() / 7</text>
</g>
<!-- n6 -->
<g id="node6" class="node">
<title>n6</title>
<ellipse fill="none" stroke="black" cx="148" cy="-105" rx="18" ry="18"/>
<text text-anchor="middle" x="148" y="-101.3" font-family="Times New Roman,serif" font-size="14.00">F</text>
</g>
<!-- n0&#45;&gt;n6 -->
<g id="edge7" class="edge">
<title>n0&#45;&gt;n6</title>
<path fill="none" stroke="black" d="M148,-173.8C148,-162.16 148,-146.55 148,-133.24"/>
<polygon fill="black" stroke="black" points="151.5,-133.18 148,-123.18 144.5,-133.18 151.5,-133.18"/>
<text text-anchor="middle" x="175.5" y="-144.8" font-family="Times New Roman,serif" font-size="14.00">.spin() / 6</text>
</g>
<!-- n0&#45;&gt;n5 -->
<g id="edge9" class="edge">
<title>n0&#45;&gt;n5</title>
<path fill="none" stroke="black" d="M131.65,-183.62C110.96,-173.31 76.1,-152.49 60,-123 47.09,-99.35 46.14,-68.09 47.61,-46.04"/>
<polygon fill="black" stroke="black" points="51.1,-46.3 48.49,-36.03 44.13,-45.69 51.1,-46.3"/>
<text text-anchor="middle" x="90.5" y="-101.3" font-family="Times New Roman,serif" font-size="14.00">.stand() / 8</text>
</g>
<!-- n6&#45;&gt;n5 -->
<g id="edge10" class="edge">
<title>n6&#45;&gt;n5</title>
<path fill="none" stroke="black" d="M134.92,-92.54C118.72,-78.34 90.93,-53.99 71.8,-37.22"/>
<polygon fill="black" stroke="black" points="74.01,-34.51 64.18,-30.55 69.4,-39.78 74.01,-34.51"/>
<text text-anchor="middle" x="139" y="-57.8" font-family="Times New Roman,serif" font-size="14.00">.punch() / 9</text>
</g>
</g>
</svg>
