<?xml version="1.0" encoding="UTF-8" standalone="no"?>
<!DOCTYPE svg PUBLIC "-//W3C//DTD SVG 1.1//EN"
 "http://www.w3.org/Graphics/SVG/1.1/DTD/svg11.dtd">
<!-- Generated by graphviz version 2.49.3 (20211023.0002)
 -->
<!-- Title: G Pages: 1 -->
<svg width="566pt" height="570pt"
 viewBox="0.00 0.00 565.78 570.50" xmlns="http://www.w3.org/2000/svg" xmlns:xlink="http://www.w3.org/1999/xlink">
<g id="graph0" class="graph" transform="scale(1 1) rotate(0) translate(4 566.5)">
<title>G</title>
<polygon fill="white" stroke="transparent" points="-4,4 -4,-566.5 561.78,-566.5 561.78,4 -4,4"/>
<!-- n0 -->
<g id="node1" class="node">
<title>n0</title>
<ellipse fill="none" stroke="black" cx="25.35" cy="-102.5" rx="25.2" ry="25.2"/>
<text text-anchor="middle" x="25.35" y="-98.8" font-family="Times New Roman,serif" font-size="14.00">x[3]</text>
</g>
<!-- n1 -->
<g id="node2" class="node">
<title>n1</title>
<ellipse fill="none" stroke="black" cx="140.04" cy="-165.5" rx="25.2" ry="25.2"/>
<text text-anchor="middle" x="140.04" y="-161.8" font-family="Times New Roman,serif" font-size="14.00">x[2]</text>
</g>
<!-- n0&#45;&gt;n1 -->
<g id="edge19" class="edge">
<title>n0&#45;&gt;n1</title>
<path fill="none" stroke="black" d="M47.81,-114.5C65.04,-124.13 89.45,-137.78 108.69,-148.53"/>
<polygon fill="black" stroke="black" points="107.22,-151.72 117.66,-153.54 110.64,-145.61 107.22,-151.72"/>
<text text-anchor="middle" x="82.7" y="-144.3" font-family="Times New Roman,serif" font-size="14.00">2015</text>
</g>
<!-- 12 -->
<g id="node21" class="node">
<title>12</title>
<ellipse fill="#f0f0f0" stroke="black" cx="140.04" cy="-102.5" rx="19.5" ry="19.5"/>
<text text-anchor="middle" x="140.04" y="-98.8" font-family="Times New Roman,serif" font-size="14.00">12</text>
</g>
<!-- n0&#45;&gt;12 -->
<g id="edge20" class="edge">
<title>n0&#45;&gt;12</title>
<path fill="none" stroke="black" d="M50.8,-102.5C68.23,-102.5 91.72,-102.5 110.08,-102.5"/>
<polygon fill="black" stroke="black" points="110.22,-106 120.22,-102.5 110.22,-99 110.22,-106"/>
<text text-anchor="middle" x="82.7" y="-106.3" font-family="Times New Roman,serif" font-size="14.00">1983</text>
</g>
<!-- 13 -->
<g id="node22" class="node">
<title>13</title>
<ellipse fill="#f0f0f0" stroke="black" cx="140.04" cy="-45.5" rx="19.5" ry="19.5"/>
<text text-anchor="middle" x="140.04" y="-41.8" font-family="Times New Roman,serif" font-size="14.00">13</text>
</g>
<!-- n0&#45;&gt;13 -->
<g id="edge21" class="edge">
<title>n0&#45;&gt;13</title>
<path fill="none" stroke="black" d="M48.34,-91.37C66.95,-81.96 93.64,-68.46 113.25,-58.55"/>
<polygon fill="black" stroke="black" points="114.9,-61.63 122.24,-54 111.74,-55.39 114.9,-61.63"/>
<text text-anchor="middle" x="82.7" y="-85.3" font-family="Times New Roman,serif" font-size="14.00">1975</text>
</g>
<!-- n2 -->
<g id="node3" class="node">
<title>n2</title>
<ellipse fill="none" stroke="black" cx="263.74" cy="-319.5" rx="25.2" ry="25.2"/>
<text text-anchor="middle" x="263.74" y="-315.8" font-family="Times New Roman,serif" font-size="14.00">x[1]</text>
</g>
<!-- n1&#45;&gt;n2 -->
<g id="edge11" class="edge">
<title>n1&#45;&gt;n2</title>
<path fill="none" stroke="black" d="M156.46,-185C177.74,-211.93 216.24,-260.66 240.6,-291.48"/>
<polygon fill="black" stroke="black" points="238.12,-293.99 247.07,-299.67 243.61,-289.65 238.12,-293.99"/>
<text text-anchor="middle" x="201.89" y="-268.3" font-family="Times New Roman,serif" font-size="14.00">&#39;UNO&#39;</text>
</g>
<!-- n13 -->
<g id="node14" class="node">
<title>n13</title>
<ellipse fill="none" stroke="black" cx="263.74" cy="-102.5" rx="25.2" ry="25.2"/>
<text text-anchor="middle" x="263.74" y="-98.8" font-family="Times New Roman,serif" font-size="14.00">x[4]</text>
</g>
<!-- n1&#45;&gt;n13 -->
<g id="edge18" class="edge">
<title>n1&#45;&gt;n13</title>
<path fill="none" stroke="black" d="M162.8,-154.24C181.98,-144.31 210.14,-129.73 231.68,-118.58"/>
<polygon fill="black" stroke="black" points="233.49,-121.58 240.76,-113.88 230.27,-115.37 233.49,-121.58"/>
<text text-anchor="middle" x="201.89" y="-146.3" font-family="Times New Roman,serif" font-size="14.00">&#39;BRO&#39;</text>
</g>
<!-- n3 -->
<g id="node4" class="node">
<title>n3</title>
<ellipse fill="none" stroke="black" cx="405.43" cy="-490.5" rx="25.2" ry="25.2"/>
<text text-anchor="middle" x="405.43" y="-486.8" font-family="Times New Roman,serif" font-size="14.00">x[0]</text>
</g>
<!-- n2&#45;&gt;n3 -->
<g id="edge3" class="edge">
<title>n2&#45;&gt;n3</title>
<path fill="none" stroke="black" d="M280.49,-338.78C305.4,-369.27 353.94,-428.69 382.32,-463.43"/>
<polygon fill="black" stroke="black" points="379.7,-465.76 388.74,-471.29 385.12,-461.33 379.7,-465.76"/>
<text text-anchor="middle" x="334.59" y="-438.3" font-family="Times New Roman,serif" font-size="14.00">&#39;GRACE&#39;</text>
</g>
<!-- n6 -->
<g id="node7" class="node">
<title>n6</title>
<ellipse fill="none" stroke="black" cx="405.43" cy="-365.5" rx="25.2" ry="25.2"/>
<text text-anchor="middle" x="405.43" y="-361.8" font-family="Times New Roman,serif" font-size="14.00">x[4]</text>
</g>
<!-- n2&#45;&gt;n6 -->
<g id="edge7" class="edge">
<title>n2&#45;&gt;n6</title>
<path fill="none" stroke="black" d="M288.12,-327.2C310.89,-334.69 345.7,-346.16 371.31,-354.59"/>
<polygon fill="black" stroke="black" points="370.38,-357.97 380.98,-357.77 372.57,-351.32 370.38,-357.97"/>
<text text-anchor="middle" x="334.59" y="-354.3" font-family="Times New Roman,serif" font-size="14.00">&#39;LUA&#39;</text>
</g>
<!-- n10 -->
<g id="node11" class="node">
<title>n10</title>
<ellipse fill="none" stroke="black" cx="405.43" cy="-274.5" rx="25.2" ry="25.2"/>
<text text-anchor="middle" x="405.43" y="-270.8" font-family="Times New Roman,serif" font-size="14.00">x[0]</text>
</g>
<!-- n2&#45;&gt;n10 -->
<g id="edge10" class="edge">
<title>n2&#45;&gt;n10</title>
<path fill="none" stroke="black" d="M288.12,-311.97C310.89,-304.63 345.7,-293.42 371.31,-285.17"/>
<polygon fill="black" stroke="black" points="372.53,-288.45 380.98,-282.05 370.38,-281.79 372.53,-288.45"/>
<text text-anchor="middle" x="334.59" y="-308.3" font-family="Times New Roman,serif" font-size="14.00">&#39;RDOC&#39;</text>
</g>
<!-- 0 -->
<g id="node5" class="node">
<title>0</title>
<ellipse fill="#f0f0f0" stroke="black" cx="539.78" cy="-544.5" rx="18" ry="18"/>
<text text-anchor="middle" x="539.78" y="-540.8" font-family="Times New Roman,serif" font-size="14.00">0</text>
</g>
<!-- n3&#45;&gt;0 -->
<g id="edge1" class="edge">
<title>n3&#45;&gt;0</title>
<path fill="none" stroke="black" d="M428.76,-500.77C435.19,-503.66 442.24,-506.76 448.78,-509.5 470.34,-518.52 495.11,-528.1 513.2,-534.95"/>
<polygon fill="black" stroke="black" points="512.16,-538.29 522.75,-538.55 514.63,-531.74 512.16,-538.29"/>
<text text-anchor="middle" x="476.28" y="-534.3" font-family="Times New Roman,serif" font-size="14.00">&#39;BRO&#39;</text>
</g>
<!-- 1 -->
<g id="node6" class="node">
<title>1</title>
<ellipse fill="#f0f0f0" stroke="black" cx="539.78" cy="-490.5" rx="18" ry="18"/>
<text text-anchor="middle" x="539.78" y="-486.8" font-family="Times New Roman,serif" font-size="14.00">1</text>
</g>
<!-- n3&#45;&gt;1 -->
<g id="edge2" class="edge">
<title>n3&#45;&gt;1</title>
<path fill="none" stroke="black" d="M431.02,-490.5C453.84,-490.5 487.75,-490.5 511.42,-490.5"/>
<polygon fill="black" stroke="black" points="511.5,-494 521.5,-490.5 511.5,-487 511.5,-494"/>
<text text-anchor="middle" x="476.28" y="-494.3" font-family="Times New Roman,serif" font-size="14.00">&#39;J&#39;</text>
</g>
<!-- 2 -->
<g id="node8" class="node">
<title>2</title>
<ellipse fill="#f0f0f0" stroke="black" cx="539.78" cy="-436.5" rx="18" ry="18"/>
<text text-anchor="middle" x="539.78" y="-432.8" font-family="Times New Roman,serif" font-size="14.00">2</text>
</g>
<!-- n6&#45;&gt;2 -->
<g id="edge4" class="edge">
<title>n6&#45;&gt;2</title>
<path fill="none" stroke="black" d="M425.66,-380.92C432.71,-386.2 440.9,-391.93 448.78,-396.5 469.63,-408.58 494.79,-419.48 513.21,-426.84"/>
<polygon fill="black" stroke="black" points="512.08,-430.16 522.67,-430.55 514.64,-423.64 512.08,-430.16"/>
<text text-anchor="middle" x="476.28" y="-426.3" font-family="Times New Roman,serif" font-size="14.00">1978</text>
</g>
<!-- 3 -->
<g id="node9" class="node">
<title>3</title>
<ellipse fill="#f0f0f0" stroke="black" cx="539.78" cy="-382.5" rx="18" ry="18"/>
<text text-anchor="middle" x="539.78" y="-378.8" font-family="Times New Roman,serif" font-size="14.00">3</text>
</g>
<!-- n6&#45;&gt;3 -->
<g id="edge5" class="edge">
<title>n6&#45;&gt;3</title>
<path fill="none" stroke="black" d="M430.71,-368.62C453.62,-371.56 487.91,-375.96 511.69,-379.02"/>
<polygon fill="black" stroke="black" points="511.44,-382.52 521.81,-380.32 512.33,-375.57 511.44,-382.52"/>
<text text-anchor="middle" x="476.28" y="-381.3" font-family="Times New Roman,serif" font-size="14.00">2006</text>
</g>
<!-- 4 -->
<g id="node10" class="node">
<title>4</title>
<ellipse fill="#f0f0f0" stroke="black" cx="539.78" cy="-328.5" rx="18" ry="18"/>
<text text-anchor="middle" x="539.78" y="-324.8" font-family="Times New Roman,serif" font-size="14.00">4</text>
</g>
<!-- n6&#45;&gt;4 -->
<g id="edge6" class="edge">
<title>n6&#45;&gt;4</title>
<path fill="none" stroke="black" d="M429.64,-357.51C435.83,-355.46 442.54,-353.33 448.78,-351.5 470,-345.29 494.3,-339.13 512.3,-334.76"/>
<polygon fill="black" stroke="black" points="513.2,-338.14 522.1,-332.4 511.56,-331.33 513.2,-338.14"/>
<text text-anchor="middle" x="476.28" y="-355.3" font-family="Times New Roman,serif" font-size="14.00">1966</text>
</g>
<!-- 5 -->
<g id="node12" class="node">
<title>5</title>
<ellipse fill="#f0f0f0" stroke="black" cx="539.78" cy="-274.5" rx="18" ry="18"/>
<text text-anchor="middle" x="539.78" y="-270.8" font-family="Times New Roman,serif" font-size="14.00">5</text>
</g>
<!-- n10&#45;&gt;5 -->
<g id="edge8" class="edge">
<title>n10&#45;&gt;5</title>
<path fill="none" stroke="black" d="M431.02,-274.5C453.84,-274.5 487.75,-274.5 511.42,-274.5"/>
<polygon fill="black" stroke="black" points="511.5,-278 521.5,-274.5 511.5,-271 511.5,-278"/>
<text text-anchor="middle" x="476.28" y="-278.3" font-family="Times New Roman,serif" font-size="14.00">&#39;BRO&#39;</text>
</g>
<!-- 6 -->
<g id="node13" class="node">
<title>6</title>
<ellipse fill="#f0f0f0" stroke="black" cx="539.78" cy="-220.5" rx="18" ry="18"/>
<text text-anchor="middle" x="539.78" y="-216.8" font-family="Times New Roman,serif" font-size="14.00">6</text>
</g>
<!-- n10&#45;&gt;6 -->
<g id="edge9" class="edge">
<title>n10&#45;&gt;6</title>
<path fill="none" stroke="black" d="M428.76,-264.23C435.19,-261.34 442.24,-258.24 448.78,-255.5 470.34,-246.48 495.11,-236.9 513.2,-230.05"/>
<polygon fill="black" stroke="black" points="514.63,-233.25 522.75,-226.45 512.16,-226.7 514.63,-233.25"/>
<text text-anchor="middle" x="476.28" y="-259.3" font-family="Times New Roman,serif" font-size="14.00">&#39;J&#39;</text>
</g>
<!-- n14 -->
<g id="node15" class="node">
<title>n14</title>
<ellipse fill="none" stroke="black" cx="405.43" cy="-139.5" rx="25.2" ry="25.2"/>
<text text-anchor="middle" x="405.43" y="-135.8" font-family="Times New Roman,serif" font-size="14.00">x[1]</text>
</g>
<!-- n13&#45;&gt;n14 -->
<g id="edge15" class="edge">
<title>n13&#45;&gt;n14</title>
<path fill="none" stroke="black" d="M288.44,-108.77C311.01,-114.75 345.24,-123.82 370.66,-130.55"/>
<polygon fill="black" stroke="black" points="370.06,-134.01 380.62,-133.19 371.85,-127.25 370.06,-134.01"/>
<text text-anchor="middle" x="334.59" y="-131.3" font-family="Times New Roman,serif" font-size="14.00">1978</text>
</g>
<!-- 10 -->
<g id="node19" class="node">
<title>10</title>
<ellipse fill="#f0f0f0" stroke="black" cx="405.43" cy="-76.5" rx="19.5" ry="19.5"/>
<text text-anchor="middle" x="405.43" y="-72.8" font-family="Times New Roman,serif" font-size="14.00">10</text>
</g>
<!-- n13&#45;&gt;10 -->
<g id="edge16" class="edge">
<title>n13&#45;&gt;10</title>
<path fill="none" stroke="black" d="M288.34,-95.21C294.41,-93.5 300.96,-91.8 307.09,-90.5 330.06,-85.61 356.44,-81.94 375.94,-79.58"/>
<polygon fill="black" stroke="black" points="376.48,-83.04 386,-78.41 375.67,-76.09 376.48,-83.04"/>
<text text-anchor="middle" x="334.59" y="-94.3" font-family="Times New Roman,serif" font-size="14.00">2006</text>
</g>
<!-- 11 -->
<g id="node20" class="node">
<title>11</title>
<ellipse fill="#f0f0f0" stroke="black" cx="405.43" cy="-19.5" rx="19.5" ry="19.5"/>
<text text-anchor="middle" x="405.43" y="-15.8" font-family="Times New Roman,serif" font-size="14.00">11</text>
</g>
<!-- n13&#45;&gt;11 -->
<g id="edge17" class="edge">
<title>n13&#45;&gt;11</title>
<path fill="none" stroke="black" d="M281.81,-84.44C289.14,-77.33 298.08,-69.45 307.09,-63.5 329.19,-48.88 356.94,-36.87 377.15,-29.12"/>
<polygon fill="black" stroke="black" points="378.54,-32.34 386.68,-25.56 376.09,-25.78 378.54,-32.34"/>
<text text-anchor="middle" x="334.59" y="-67.3" font-family="Times New Roman,serif" font-size="14.00">1966</text>
</g>
<!-- 7 -->
<g id="node16" class="node">
<title>7</title>
<ellipse fill="#f0f0f0" stroke="black" cx="539.78" cy="-166.5" rx="18" ry="18"/>
<text text-anchor="middle" x="539.78" y="-162.8" font-family="Times New Roman,serif" font-size="14.00">7</text>
</g>
<!-- n14&#45;&gt;7 -->
<g id="edge12" class="edge">
<title>n14&#45;&gt;7</title>
<path fill="none" stroke="black" d="M430.4,-144.39C453.37,-149.07 487.99,-156.14 511.89,-161.01"/>
<polygon fill="black" stroke="black" points="511.22,-164.45 521.72,-163.02 512.62,-157.59 511.22,-164.45"/>
<text text-anchor="middle" x="476.28" y="-162.3" font-family="Times New Roman,serif" font-size="14.00">&#39;GRACE&#39;</text>
</g>
<!-- 8 -->
<g id="node17" class="node">
<title>8</title>
<ellipse fill="#f0f0f0" stroke="black" cx="539.78" cy="-112.5" rx="18" ry="18"/>
<text text-anchor="middle" x="539.78" y="-108.8" font-family="Times New Roman,serif" font-size="14.00">8</text>
</g>
<!-- n14&#45;&gt;8 -->
<g id="edge13" class="edge">
<title>n14&#45;&gt;8</title>
<path fill="none" stroke="black" d="M430.1,-133C436.16,-131.43 442.7,-129.83 448.78,-128.5 469.81,-123.91 493.82,-119.69 511.74,-116.74"/>
<polygon fill="black" stroke="black" points="512.47,-120.17 521.78,-115.11 511.35,-113.26 512.47,-120.17"/>
<text text-anchor="middle" x="476.28" y="-132.3" font-family="Times New Roman,serif" font-size="14.00">&#39;LUA&#39;</text>
</g>
<!-- 9 -->
<g id="node18" class="node">
<title>9</title>
<ellipse fill="#f0f0f0" stroke="black" cx="539.78" cy="-58.5" rx="18" ry="18"/>
<text text-anchor="middle" x="539.78" y="-54.8" font-family="Times New Roman,serif" font-size="14.00">9</text>
</g>
<!-- n14&#45;&gt;9 -->
<g id="edge14" class="edge">
<title>n14&#45;&gt;9</title>
<path fill="none" stroke="black" d="M422.94,-120.85C430.32,-113.25 439.45,-104.8 448.78,-98.5 468.75,-85.02 494,-74.26 512.67,-67.31"/>
<polygon fill="black" stroke="black" points="514.07,-70.53 522.29,-63.85 511.7,-63.94 514.07,-70.53"/>
<text text-anchor="middle" x="476.28" y="-102.3" font-family="Times New Roman,serif" font-size="14.00">&#39;RDOC&#39;</text>
</g>
</g>
</svg>
